<?xml version="1.0" standalone="no"?>
<!DOCTYPE svg PUBLIC "-//W3C//DTD SVG 20010904//EN"
 "http://www.w3.org/TR/2001/REC-SVG-20010904/DTD/svg10.dtd">
<svg version="1.0" xmlns="http://www.w3.org/2000/svg"
 width="206.000000pt" height="451.000000pt" viewBox="0 0 206.000000 451.000000"
 preserveAspectRatio="xMidYMid meet">

<g transform="translate(0.000000,451.000000) scale(0.100000,-0.100000)"
fill="#000000" stroke="none">
<!--
-->
<path d="M1883 4004 c-299 -301 -628 -719 -833 -1059 -288 -477 -454 -900
-548 -1395 -62 -326 -63 -584 -2 -971 36 -231 37 -239 82 -354 20 -50 46 -119
59 -153 21 -61 36 -78 58 -70 11 3 -31 141 -80 264 -124 311 -158 912 -76
1324 63 313 116 485 244 785 236 555 658 1169 1121 1634 73 73 131 136 128
138 -3 3 -72 -61 -153 -143z" fill="#D6D6D6"/>

<path d="M0 2649 c0 -72 85 -427 166 -693 26 -83 52 -171 59 -196 7 -25 24
-81 38 -125 14 -44 60 -188 103 -320 42 -132 83 -249 90 -260 20 -31 79 -184
93 -240 7 -27 21 -68 31 -90 31 -64 140 -316 140 -322 0 -3 21 -49 46 -102 26
-53 69 -142 95 -198 42 -90 52 -103 73 -103 25 0 25 0 9 38 -8 20 -26 58 -39
83 -13 26 -20 49 -17 53 4 3 2 6 -4 6 -6 0 -27 39 -48 88 -20 48 -43 97 -50
108 -8 12 -28 59 -46 105 -18 46 -36 86 -40 89 -5 4 -17 31 -28 60 -10 30 -34
89 -51 130 -18 41 -50 122 -70 180 -21 58 -50 130 -63 161 -14 31 -29 74 -33
95 -5 22 -9 41 -9 44 -1 3 -8 21 -16 40 -63 143 -268 826 -380 1265 -22 88
-42 162 -45 164 -2 2 -4 -25 -4 -60z" fill="#D6D6D6"/>

<path d="M1 2444 c-2 -133 82 -627 170 -994 107 -448 308 -1023 467 -1337 46
-92 61 -113 79 -113 21 0 20 3 -19 93 -22 50 -58 135 -80 187 -21 52 -47 113
-57 135 -89 192 -146 346 -236 630 -96 304 -196 741 -259 1130 -20 121 -42
247 -50 280 l-14 60 -1 -71z" fill="#D6D6D6"/>

<path d="M2 4365 c-3 -155 41 -682 93 -1125 41 -344 108 -749 190 -1150 24
-118 50 -246 58 -285 17 -86 114 -443 167 -620 108 -360 251 -740 381 -1013
68 -145 86 -175 99 -167 5 3 -18 60 -51 126 -88 179 -215 493 -305 754 -100
290 -250 837 -289 1055 -10 52 -22 102 -26 110 -24 43 -161 837 -204 1175 -38
305 -72 655 -89 910 -9 127 -17 250 -19 275 -2 25 -4 5 -5 -45z" fill="#0E5A86"/>

<path d="M416 4063 c-45 -211 -91 -709 -106 -1148 -9 -264 2 -806 20 -1000 56
-608 173 -1123 369 -1630 43 -110 84 -218 92 -240 12 -32 20 -41 42 -43 15 -2
27 -1 27 3 0 3 -14 34 -31 68 -18 34 -42 89 -55 122 -12 33 -43 105 -67 160
-68 151 -131 352 -197 619 -71 290 -84 354 -104 516 -9 69 -25 197 -36 285
-11 88 -25 241 -32 340 -17 234 -16 931 0 1145 20 258 51 553 73 694 11 71 18
131 15 133 -2 2 -7 -8 -10 -24z" fill="#0E5A86"/>

<path d="M1587 2610 c-348 -363 -597 -738 -754 -1136 -138 -350 -191 -725
-144 -1024 5 -36 15 -99 21 -140 6 -41 30 -127 53 -190 39 -105 45 -115 70
-118 15 -2 27 -1 27 1 0 2 -20 47 -44 98 -116 246 -148 567 -90 924 82 506
408 1097 863 1567 68 71 119 128 113 128 -5 0 -57 -50 -115 -110z" fill="#0E5A86"/>

</g>
</svg>
